<?xml version="1.0" encoding="UTF-8" standalone="no"?><!DOCTYPE svg PUBLIC "-//W3C//DTD SVG 1.1//EN" "http://www.w3.org/Graphics/SVG/1.1/DTD/svg11.dtd"><svg width="100%" height="100%" viewBox="0 0 48 48" version="1.1" xmlns="http://www.w3.org/2000/svg" xmlns:xlink="http://www.w3.org/1999/xlink" xml:space="preserve" style="fill-rule:evenodd;clip-rule:evenodd;stroke-linejoin:round;stroke-miterlimit:1.41421;"><path d="M23.92,1.545c-13.002,0 -23.543,10.541 -23.543,23.545c0,10.402 6.746,19.226 16.102,22.341c1.178,0.216 1.607,-0.511 1.607,-1.136c0,-0.558 -0.02,-2.039 -0.032,-4.004c-6.549,1.423 -7.931,-3.156 -7.931,-3.156c-1.071,-2.719 -2.614,-3.443 -2.614,-3.443c-2.138,-1.461 0.162,-1.433 0.162,-1.433c2.363,0.168 3.606,2.427 3.606,2.427c2.1,3.598 5.511,2.559 6.852,1.957c0.214,-1.522 0.821,-2.559 1.495,-3.148c-5.228,-0.594 -10.725,-2.614 -10.725,-11.637c0,-2.569 0.918,-4.671 2.424,-6.317c-0.243,-0.596 -1.051,-2.989 0.23,-6.231c0,0 1.977,-0.633 6.475,2.413c1.878,-0.521 3.893,-0.783 5.894,-0.792c1.999,0.009 4.014,0.271 5.895,0.792c4.495,-3.046 6.468,-2.413 6.468,-2.413c1.285,3.242 0.477,5.635 0.234,6.231c1.509,1.646 2.421,3.748 2.421,6.317c0,9.046 -5.505,11.036 -10.751,11.618c0.846,0.727 1.599,2.164 1.599,4.361c0,3.147 -0.029,5.686 -0.029,6.458c0,0.63 0.423,1.363 1.619,1.133c9.349,-3.12 16.088,-11.939 16.088,-22.338c0,-13.004 -10.542,-23.545 -23.546,-23.545" style="fill:#181717;"/></svg>