<svg xmlns="http://www.w3.org/2000/svg">
  <symbol id="cross" viewBox="0 0 25 25">
    <path d="M17.1 5.2l-2.6-2.6-4.6 4.7-4.7-4.7-2.5 2.6 4.7 4.7-4.7 4.7 2.5 2.5 4.7-4.7 4.6 4.7 2.6-2.5-4.7-4.7"/>
  </symbol>
  <symbol id="play" viewBox="0 0 25 25">
    <path d="M7.5,0.5c3.9,0,7,3.1,7,7c0,3.9-3.1,7-7,7c-3.9,0-7-3.1-7-7l0,0C0.5,3.6,3.6,0.5,7.5,0.5 C7.5,0.5,7.5,0.5,7.5,0.5L7.5,0.5L7.5,0.5z M6.1,4.7v5.6l4.2-2.8L6.1,4.7z"/>
  </symbol>
  <symbol id="tel" viewBox="0 0 26 26">
    <path d="M22.666,11.647c0,5.772 -4.874,10.451 -10.885,10.451c-6.012,0 -10.886,-4.679 -10.886,-10.451c0,-5.772 4.874,-10.452 10.886,-10.452c6.011,0 10.885,4.68 10.885,10.452 M15.707,16.994l-7.852,0l0,-10.695l7.852,0l0,10.695Z M11.781,18.908c-0.409,0 -0.741,-0.319 -0.741,-0.712c0,-0.393 0.332,-0.711 0.741,-0.711c0.409,0 0.741,0.318 0.741,0.711c0,0.393 -0.332,0.712 -0.741,0.712M10.579,4.691l2.404,0c0.076,0 0.139,0.13 0.139,0.291c0,0.161 -0.063,0.291 -0.139,0.291l-2.404,0c-0.077,0 -0.139,-0.13 -0.139,-0.291c0,-0.161 0.062,-0.291 0.139,-0.291M14.588,3.972l-5.615,0c-0.967,0 -1.75,0.753 -1.75,1.681l0,11.988c0,0.928 0.783,1.681 1.75,1.681l5.615,0c0.967,0 1.751,-0.753 1.751,-1.681l0,-11.988c0,-0.928 -0.784,-1.681 -1.751,-1.681"/>
  </symbol>
<symbol id="house" viewBox="0 0 25 25">
  <path d="M22.669,10.786c0,5.395 -4.793,9.768 -10.706,9.768c-5.913,0 -10.707,-4.373 -10.707,-9.768c0,-5.395 4.794,-9.768 10.707,-9.768c5.913,0 10.706,4.373 10.706,9.768 M16.528,5.356l0,-2.897l-0.459,0l-2.493,0l0,1.451l-5.517,0l-3.881,5.36l1.711,0l0,8.45l4.638,0l0,-3.874l2.642,0l0,3.874l4.481,0l0,-8.45l1.713,0c0,0 -2.652,-3.662 -2.835,-3.914"/>
</symbol>
<symbol id="compu" viewBox="0 0 25 25">
  <path d="M22.669,11.054c0,5.543 -4.793,10.037 -10.706,10.037c-5.913,0 -10.707,-4.494 -10.707,-10.037c0,-5.543 4.794,-10.036 10.707,-10.036c5.913,0 10.706,4.493 10.706,10.036 M5.08,6.204l0,7.409c0,0.381 0.313,0.691 0.697,0.691l12.699,0c0.386,0 0.697,-0.31 0.697,-0.691l0,-7.409c0,-0.38 -0.311,-0.689 -0.697,-0.689l-12.699,0c-0.384,0 -0.697,0.309 -0.697,0.689 M8.249,16.182l0,0.243c0,0.027 0.023,0.047 0.05,0.047l7.657,0c0.027,0 0.048,-0.02 0.048,-0.047l0,-0.243c0,-0.024 -0.021,-0.047 -0.048,-0.047l-7.657,0c-0.027,0 -0.05,0.023 -0.05,0.047 M10.783,14.619l0,1.164c0,0.15 0.122,0.272 0.274,0.272l2.141,0c0.149,0 0.273,-0.122 0.273,-0.272l0,-1.164c0,-0.149 -0.124,-0.27 -0.273,-0.27l-2.141,0c-0.152,0 -0.274,0.121 -0.274,0.27"/>
</symbol>
<symbol id="neven" viewBox="0 0 50 20">
  <path d="M13.053,23.137l17.333,-17.363l8.812,0.026l-0.086,8.621l8.741,-8.569l-0.058,12.184l-10.4,10.459l-0.015,-12.246l-6.904,6.904l-0.105,-8.599l-8.549,8.679c0,0 -8.773,-0.036 -8.769,-0.096Z"/>
</symbol>
</svg>
